<?xml version="1.0" encoding="UTF-8"?>
<svg id="Capa_2" data-name="Capa 2" xmlns="http://www.w3.org/2000/svg" viewBox="0 0 89.09 143.5">
  <defs>
    <style>
      .cls-1 {
        fill: #fedb9d;
      }

      .cls-2 {
        fill: #262945;
      }

      .cls-3 {
        fill: #fff;
      }

      .cls-4 {
        fill: #db1d48;
      }

      .cls-5 {
        fill: #b5bbde;
      }

      .cls-6 {
        fill: #fdf9f9;
      }

      .cls-7 {
        fill: #ffecc9;
      }

      .cls-8 {
        fill: #ee853e;
      }

      .cls-9 {
        fill: #e9630c;
      }

      .cls-10 {
        fill: #fcf3f3;
      }

      .cls-11 {
        fill: #e22c53;
      }

      .cls-12 {
        fill: #e8630d;
      }

      .cls-13 {
        fill: #85133a;
      }

      .cls-14 {
        fill: #e9630e;
      }

      .cls-15 {
        fill: #fabb5b;
      }

      .cls-16 {
        fill: #010101;
      }
    </style>
  </defs>
  <g id="Capa_2-2" data-name="Capa 2">
    <g>
      <path class="cls-11" d="m35.67.22h11.97c9.5,0,17.21,7.71,17.21,17.21v22.01H18.47v-22.01C18.47,7.93,26.18.22,35.67.22Z" transform="translate(.75 -1.51) rotate(2.1)"/>
      <path class="fill-primary" d="m23.19,95.31c-.08.78-.76,1.37-1.54,1.34-.01,0-.08,0-.09,0-6.23-.63-12.3-2.2-18.05-4.66C.48,90.68-.07,88.96,0,87.74c.09-1.52,1.24-2.58,1.86-3.15l15.88-14.62c.61-.56,1.56-.52,2.11.09.56.61.52,1.56-.09,2.11l-15.88,14.62c-.26.24-.88.81-.9,1.13-.02.28.5.81,1.69,1.31,5.47,2.34,11.25,3.84,17.17,4.44.4.04.76.23,1.01.54.25.31.37.7.33,1.09Z"/>
      <path class="fill-primary" d="m89.08,56.6c-.1,2.83-2.63,5.04-5.63,4.93-.14,0-.28-.02-.41-.03-1.09,8.98-2.93,17.91-5.48,26.57-.25.86-1.02,3.48-3.38,3.86-.2.03-.42.05-.63.04-1.3-.05-2.36-.84-2.87-1.23-5.1-3.83-9.32-8.87-12.2-14.55-.37-.74-.08-1.64.66-2.01.35-.18.76-.21,1.14-.09.38.12.69.39.87.74,2.68,5.29,6.6,9.96,11.33,13.52.22.17.91.68,1.23.63.08-.01.52-.16.99-1.75,2.58-8.77,4.42-17.81,5.47-26.89-.74-.58-1.32-1.35-1.65-2.22h0c-1.98-1.26-2.92-3.41-2.11-5.01.53-1.05,1.71-1.63,3.08-1.66-.15-.82-.22-1.73-.18-2.66.11-2.88,1.2-5.9,3.02-5.83s2.7,3.16,2.59,6.04c-.03.82-.14,1.64-.31,2.39.36.22.69.42.99.6,2.52,1.51,3.56,2.13,3.47,4.61Z"/>
      <path class="cls-1" d="m55.85,107.17c.53.15,4.39,1.35,5.29,3.92-.6-1.81-2.63-3.31-5.29-3.92Zm-11.88,26.14c-.37-.39-.76-.74-1.17-1.05-1.51-1.14-3.29-1.79-5.19-1.86-2.42-.09-4.72.77-6.56,2.43-.15.13-.3.27-.44.42l.34.51,6.19,9.14.42-.53,6.43-8.13.38-.48c-.13-.16-.27-.3-.41-.45Z"/>
      <path class="cls-7" d="m44.38,133.76l-.38.48-6.43,8.13,1.44-2.78,3.23-6.24.28-.54.28-.54c.41.31.81.66,1.17,1.05.14.14.28.29.41.45Z"/>
      <g>
        <path class="cls-15" d="m44.46,133.86s-.05-.06-.08-.1c-.13-.16-.27-.3-.41-.45l-.37.47-.37.48-4.21,5.33-1.82,2.3-5.46-8.05-.34-.5-.34-.5c-.15.13-.3.27-.44.42-.03.03-.06.06-.09.09-.19.21-.22.51-.07.75,0,0,0,0,0,0l6.2,9.14c.11.16.28.26.47.26s.37-.08.49-.23l6.85-8.66s0,0,0,0c.17-.22.17-.53-.01-.75Z"/>
        <path class="cls-15" d="m61.93,112.35c0,.13-.05.25-.13.35l-17.33,21.91c.17-.22.17-.53-.01-.75-.03-.03-.05-.06-.08-.1-.13-.16-.27-.3-.41-.45-.37-.39-.76-.74-1.17-1.05-1.51-1.14-3.29-1.79-5.19-1.86-2.42-.09-4.72.77-6.56,2.43-.15.13-.3.27-.44.42-.03.03-.06.06-.09.09-.19.21-.22.51-.07.75l-15.67-23.12c-.07-.11-.11-.23-.1-.36.12-3.18,4.01-5.62,8.69-5.45,3.28.12,6.12,1.46,7.46,3.44,1.48-1.87,4.41-3,7.69-2.88s6.12,1.46,7.46,3.44c1.48-1.87,4.41-3,7.69-2.88,4.67.17,8.38,2.89,8.27,6.07Z"/>
      </g>
      <g>
        <path class="cls-8" d="m64.16,35.16l-2.83,77.17c.1-2.85-3.34-5.29-7.69-5.45-3.6-.13-6.69,1.34-7.71,3.47-.86-2.2-3.83-3.9-7.44-4.03s-6.69,1.34-7.71,3.47c-.86-2.2-3.83-3.9-7.44-4.03-4.35-.16-7.96,2.02-8.07,4.87l2.83-77.17,46.05,1.69Z"/>
        <path class="cls-15" d="m64.16,35.16l-2.83,77.17c.09-2.36-2.26-4.44-5.54-5.17l2.65-72.2,5.72.21Z"/>
        <path class="cls-15" d="m30.76,110.39c-.33-.01-.59-.29-.58-.62l2.73-74.39c.01-.33.29-.59.62-.58s.59.29.58.62l-2.73,74.39c-.01.33-.29.59-.62.58Z"/>
        <path class="cls-15" d="m45.9,110.95c-.33-.01-.59-.29-.58-.62l2.76-75.15c.01-.33.29-.59.62-.58s.59.29.58.62l-2.76,75.15c-.01.33-.29.59-.62.58Z"/>
        <path class="cls-9" d="m61.31,112.93c-.33-.01-.59-.29-.58-.62.09-2.52-3.1-4.68-7.11-4.83-3.27-.12-6.21,1.17-7.15,3.13-.1.22-.32.35-.56.34h0c-.24,0-.45-.16-.54-.38-.79-2.03-3.63-3.53-6.9-3.65s-6.21,1.17-7.15,3.13c-.1.22-.32.35-.56.34s-.45-.16-.54-.38c-.79-2.03-3.63-3.53-6.9-3.65-4.02-.15-7.36,1.78-7.45,4.3-.01.33-.29.59-.62.58s-.59-.29-.58-.62l2.83-77.17c.01-.33.29-.59.62-.58l46.05,1.69c.33.01.59.29.58.62l-2.83,77.17c-.01.33-.29.59-.62.58Zm-22.79-7.2c3.28.12,6.12,1.46,7.46,3.44,1.48-1.87,4.41-3,7.69-2.88,3.09.11,5.76,1.34,7.18,3.08l2.7-73.63-44.86-1.64-2.7,73.63c1.54-1.63,4.29-2.66,7.38-2.55,3.28.12,6.12,1.46,7.46,3.44,1.48-1.87,4.41-3,7.69-2.88Z"/>
      </g>
      <path class="cls-2" d="m44.47,134.61s0,0,0,0l-6.85,8.66c-.12.15-.3.23-.49.23s-.36-.1-.47-.26l-6.2-9.14s0,0,0,0c-.16-.23-.13-.54.07-.75.03-.03.06-.06.09-.09.14-.15.29-.28.44-.42,1.84-1.66,4.14-2.52,6.56-2.43,1.9.07,3.68.72,5.19,1.86.41.31.81.66,1.17,1.05.14.14.28.29.41.45.03.03.05.06.08.1.18.22.18.53.01.75Z"/>
      <rect class="cls-5" x="34.64" y="4.99" width="13.17" height="53.39" rx="3.35" ry="3.35" transform="translate(8.05 71.73) rotate(-87.9)"/>
      <ellipse class="cls-3" cx="23.55" cy="53.63" rx="11.19" ry="9.44" transform="translate(-32.8 69.62) rotate(-82.13)"/>
      <path class="cls-14" d="m22.81,65.38c-.29-.01-.58-.04-.87-.08-2.68-.37-5.02-1.94-6.59-4.43-1.55-2.46-2.17-5.52-1.74-8.62.89-6.44,6.07-11.06,11.56-10.3,5.48.76,9.22,6.61,8.33,13.05-.84,6.1-5.54,10.57-10.69,10.38Zm1.45-22.31c-4.55-.17-8.7,3.86-9.46,9.35-.39,2.82.17,5.6,1.57,7.82,1.38,2.19,3.42,3.57,5.74,3.89,4.83.67,9.41-3.5,10.21-9.28.8-5.79-2.48-11.04-7.31-11.7-.25-.03-.5-.06-.75-.07Z"/>
      <path class="cls-16" d="m32.99,53.97c-.13,3.6-3.15,6.4-6.74,6.27s-6.4-3.15-6.27-6.74,3.15-6.4,6.74-6.27c1.43.05,2.74.56,3.78,1.39-1.91,1.65-2.93,3.37-2.36,4.24.56.85,2.49.63,4.72-.42.1.49.14,1,.12,1.53Z"/>
      <circle class="cls-3" cx="55.62" cy="54.8" r="11.19" transform="translate(-10.17 96.86) rotate(-77.17)"/>
      <path class="cls-12" d="m55.19,66.59c-6.5-.24-11.59-5.72-11.35-12.21s5.72-11.59,12.21-11.35,11.59,5.72,11.35,12.21-5.72,11.59-12.21,11.35Zm.82-22.37c-5.84-.21-10.76,4.36-10.97,10.2s4.36,10.76,10.2,10.97,10.76-4.36,10.97-10.2-4.36-10.76-10.2-10.97Z"/>
      <path class="cls-16" d="m61.3,55.01c-.13,3.6-3.15,6.4-6.74,6.27s-6.4-3.15-6.27-6.74c.13-3.6,3.15-6.4,6.74-6.27,1.43.05,2.74.56,3.78,1.39-1.91,1.65-2.93,3.37-2.36,4.24.56.85,2.49.63,4.72-.42.1.49.14,1,.12,1.53Z"/>
      <path class="cls-16" d="m31.02,36.54c2.47-.86,4.77-.68,5.15.41.38,1.09-1.31,2.67-3.78,3.53-2.47.86-4.77.68-5.15-.41-.38-1.09,1.31-2.67,3.78-3.53Z"/>
      <path class="cls-16" d="m52.69,40.88c-.33,1.1-2.63,1.39-5.13.63s-4.26-2.26-3.93-3.36c.33-1.1,2.63-1.39,5.13-.63,2.5.75,4.26,2.26,3.93,3.36Z"/>
      <g>
        <g>
          <path class="cls-13" d="m26.95,66.09c2.28,6.54,4.7,9.7,8.41,10.67.38.1.77.18,1.18.23.61.09,1.25.12,1.92.11,2.66-.04,5.21-1.26,7.04-3.18.39-.4.73-.84,1.05-1.31.13-.19.25-.38.37-.58,1-1.61,1.74-3.47,2.59-5.13-3.22,2.86-7.27,5.25-11.57,4.94-4.19-.3-7.74-3.08-11-5.74Z"/>
          <path class="cls-16" d="m37.71,77.69c-.44-.02-.85-.05-1.25-.11-.39-.05-.8-.13-1.24-.24-3.89-1.01-6.44-4.21-8.83-11.05-.09-.25,0-.53.22-.69.22-.15.51-.14.72.03,3.56,2.91,6.81,5.33,10.66,5.61,3.52.26,7.26-1.35,11.13-4.79.21-.19.54-.2.76-.03.23.18.3.49.17.74-.29.57-.57,1.16-.85,1.76-.54,1.15-1.09,2.33-1.77,3.42-.12.21-.25.41-.39.61-.34.5-.7.96-1.1,1.37-2,2.1-4.72,3.33-7.47,3.37-.26,0-.52,0-.76,0Zm-9.44-9.78c2.01,5.03,4.19,7.47,7.25,8.27.39.1.75.17,1.1.21.58.08,1.18.12,1.84.11,2.43-.04,4.84-1.13,6.62-3,.35-.37.67-.77.98-1.23.13-.19.24-.37.36-.55.52-.84.98-1.77,1.42-2.69-3.39,2.49-6.72,3.63-9.93,3.4-3.55-.26-6.55-2.11-9.64-4.52Z"/>
        </g>
        <g>
          <path class="cls-4" d="m35.36,76.75c.38.1.77.18,1.18.23.61.09,1.25.12,1.92.11,2.66-.04,5.21-1.26,7.04-3.18.39-.4.73-.84,1.05-1.31.13-.19.25-.38.37-.58-2.19-.55-4.91-.43-6.97.5-1.93.87-3.54,2.38-4.59,4.22Z"/>
          <path class="cls-16" d="m37.71,77.69c-.44-.02-.85-.05-1.25-.11-.39-.05-.8-.13-1.24-.24-.18-.05-.33-.17-.4-.35-.07-.17-.06-.37.03-.53,1.13-1.98,2.86-3.57,4.87-4.47,2.1-.95,4.92-1.15,7.36-.54.18.05.34.18.41.35.07.18.06.38-.04.54-.13.21-.26.42-.4.61-.34.5-.7.96-1.1,1.37-2,2.1-4.72,3.33-7.47,3.37-.26,0-.52,0-.76,0Zm-1.38-1.34c.1.02.19.03.29.04.58.08,1.18.12,1.84.11,2.43-.04,4.84-1.13,6.62-3,.31-.32.6-.68.87-1.07-1.96-.32-4.14-.08-5.74.64-1.54.69-2.89,1.84-3.88,3.27Z"/>
        </g>
      </g>
      <path class="cls-6" d="m52.4,5.65c2.43.15,4.35,1.42,5.99,3.21.36.39.58.82.28,1.33-.29.49-.69.79-1.31.8-1.09.02-1.86-.62-2.6-1.24-.88-.74-1.83-1.3-2.92-1.66-.81-.27-1.7-.57-1.47-1.67.24-1.15,1.23-.66,2.04-.77Z"/>
      <path class="cls-10" d="m61.97,12.49c-.18,1.08-.82,1.7-1.86,1.73-.76.03-1.19-.5-1.05-1.25.18-.92.56-1.89,1.65-1.95.85-.05,1.19.69,1.26,1.47Z"/>
    </g>
  </g>
</svg>