<?xml version="1.0" encoding="UTF-8"?>
<svg id="Capa_2" data-name="Capa 2" xmlns="http://www.w3.org/2000/svg" viewBox="0 0 320.89 218.22">
  <defs>
    <style>
      .cls-1 {
        fill: #262945;
      }

      .cls-2 {
        fill: #fff;
      }

      .cls-3 {
        fill: #db1d48;
      }

      .cls-4 {
        fill: #b5bbde;
      }

      .cls-5 {
        fill: #fdf9f9;
      }

      .cls-6 {
        fill: #ee853e;
      }

      .cls-7 {
        fill: #fcf3f3;
      }

      .cls-8 {
        fill: #906bac;
      }

      .cls-9 {
        fill: #ee703b;
      }

      .cls-10 {
        fill: #e22c53;
      }

      .cls-11 {
        fill: #f9b233;
      }

      .cls-12 {
        fill: #673c8b;
      }

      .cls-13 {
        fill: #f59a33;
      }

      .cls-14 {
        fill: #6e4193;
      }

      .cls-15 {
        fill: #144f97;
      }

      .cls-16 {
        fill: #85133a;
      }

      .cls-17 {
        fill: #fabb5b;
      }

      .cls-18 {
        fill: #010101;
      }
    </style>
  </defs>
  <g id="Capa_3" data-name="Capa 3">
    <g>
      <g>
        <g>
          <path class="cls-10" d="m260.46.64h12.87c9.5,0,17.21,7.71,17.21,17.21v11.15h-47.29v-11.15c0-9.5,7.71-17.21,17.21-17.21Z" transform="translate(2.68 -25.7) rotate(5.54)"/>
          <path class="cls-5" d="m278.28,5.34c2.46.28,4.37,1.34,5.99,2.76.35.31.56.63.24.98-.31.33-.73.52-1.36.48-1.1-.06-1.87-.58-2.6-1.08-.87-.6-1.82-1.07-2.92-1.41-.82-.25-1.71-.53-1.44-1.32.28-.82,1.27-.39,2.1-.41Z"/>
          <path class="cls-7" d="m287.78,10.98c-.22.77-.89,1.17-1.95,1.12-.77-.04-1.2-.45-1.03-.98.21-.66.63-1.32,1.74-1.29.87.02,1.19.58,1.24,1.15Z"/>
        </g>
        <path class="cls-1" d="m240.98,87.08c-.24.62-.82,1.02-1.49,1.02-.2,0-.39-.04-.58-.11-13.59-5.31-23.74-18.42-25.57-32.88-1.17,0-2.38-.63-3.48-1.8-1.26-1.35-2.23-3.29-2.75-5.47-.52-2.18-.53-4.35-.03-6.12.54-1.9,1.62-3.13,3.02-3.46,1.41-.34,2.92.27,4.27,1.71,1.24,1.33,2.2,3.24,2.73,5.38,1.21-1.04,2.42-1.37,3.28-.85.43.26.73.7.87,1.28.32,1.3-.17,3.21-1.27,4.98-1.2,1.93-2.47,2.96-3.53,3.53,1.54,13.49,10.95,25.79,23.61,30.74.4.15.71.46.88.85.17.39.18.82.02,1.22Z"/>
        <g>
          <path class="cls-8" d="m286.06,92.66c-.22-.08-.44-.16-.65-.26l-.03-.72-.03-.73-.29-7.06-.03-.64-.03-.66-.02-.58-.03-.66-.03-.65-.2-4.91-.03-.71-.03-.7c.2-.1.41-.2.63-.28l.03.68.03.69.21,5.1.03.65.03.64.03.65.03.65.03.65.3,7.44.03.71.03.7Z"/>
          <path class="cls-8" d="m285.22,72.02h0c-.21.08-.42.15-.63.24l-.03-.68-.03-.67c.21-.08.42-.15.63-.22l.03.66h0s.03.67.03.67Z"/>
          <path class="cls-8" d="m286.26,97.62h-.06c-.19,0-.39,0-.58-.02l-.03-.66-.03-.65c.21.02.43.03.64.03l.03.65.03.65Z"/>
          <path class="cls-12" d="m285.7,83.81l-.03-.65-.03-.65-.03-.65-.03-.64-.03-.65-.21-5.1-.03-.69c-.16.07-.32.14-.47.22-.05.03-.1.05-.15.08l.03.71.2,4.91.03.65.03.66.02.58.03.66.03.64.29,7.06c.21.11.43.21.65.31l-.3-7.44Zm-.5-12.46h0s-.03-.66-.03-.66c-.21.07-.42.14-.63.22-.21.08-.42.16-.63.25l.03.68.03.69c.21-.09.42-.18.63-.27.21-.08.42-.16.63-.23h0s-.03-.67-.03-.67Zm1.04,25.62l-.03-.65c-.21,0-.43,0-.64-.03-.21-.01-.43-.03-.64-.06l.03.66.03.66c.21.03.43.04.64.05.19,0,.39.02.58.02h.06l-.03-.65Zm-.2-5.02l-.03-.71-.3-7.44-.03-.65-.03-.65-.03-.65-.03-.64-.03-.65-.21-5.1-.03-.69-.03-.68c-.21.09-.42.18-.63.28-.21.1-.42.21-.63.33l.03.73.03.74.19,4.74.03.83h0s.05,1.13.05,1.13l.03.83.28,6.85.03.77.03.75c.21.11.43.21.66.31.21.09.43.18.65.26l-.03-.7Zm0,0l-.03-.71-.3-7.44-.03-.65-.03-.65-.03-.65-.03-.64-.03-.65-.21-5.1-.03-.69-.03-.68c-.21.09-.42.18-.63.28l.03.7.03.71c-.21.12-.42.25-.62.39l.19,4.74.03.83h0s.05,1.13.05,1.13l.03.83.28,6.85.03.77c.21.12.43.23.65.34l.03.72c.21.09.43.18.65.26l-.03-.7Zm-.33-8.14l-.03-.65-.03-.65-.03-.65-.03-.64-.03-.65-.21-5.1-.03-.69c-.16.07-.32.14-.47.22-.05.03-.1.05-.15.08l.03.71.2,4.91.03.65.03.66.02.58.03.66.03.64.29,7.06c.21.11.43.21.65.31l-.3-7.44Z"/>
        </g>
        <g>
          <path class="cls-14" d="m299.39,111.42c-6.21.91-13.19.42-13.19.42l-1.81-44.59,1.81-1.23s.11-.03.2-.04c.28-.06.77-.16,1.26-.26.03,0,.06-.01.09-.02.48-.08.93-.15,1.38-.19,1.23,9.97,3.96,44.44,9.95,45.84.11.03.21.05.31.08Z"/>
          <path class="cls-12" d="m290.79,112.61c-2.69,0-4.6-.13-4.64-.13-.32-.02-.58-.29-.59-.61l-1.81-44.59c0-.22.1-.43.28-.55l1.81-1.23c.08-.05.17-.09.26-.1l.18-.04c.17-.04.45-.1.76-.16l.5-.1s.11-.02.11-.02c.51-.09.97-.15,1.42-.2.35-.04.66.21.7.56.18,1.43.39,3.38.63,5.64,1.24,11.54,4.14,38.56,8.83,39.66.13.03.24.06.36.1.28.09.47.36.45.66-.02.3-.25.54-.54.58-2.99.44-6.18.56-8.69.56Zm-3.98-1.38c1.57.08,6.12.25,10.62-.21-4.18-4.41-6.48-22.67-8.32-39.83-.21-1.93-.39-3.64-.55-4.98-.23.03-.46.07-.71.11l-.2-.61.13.63-.5.1c-.3.06-.57.12-.75.16l-.09.02-1.41.96,1.77,43.65Z"/>
        </g>
        <path class="cls-17" d="m241.13,108.98c-.09-.11-.14-.26-.14-.39,0-2.45,2.12-4.66,5.39-5.64.02,0,.04,0,.06-.02,1.15-.34,2.36-.51,3.62-.51,3.51,0,6.6,1.32,8.11,3.38,1.51-2.06,4.6-3.38,8.11-3.38s6.6,1.32,8.11,3.38c1.51-2.06,4.6-3.38,8.11-3.38,3.76,0,7.18,1.6,8.5,3.97.38.7.58,1.44.58,2.19,0,.14-.04.27-.12.38l-17.65,24.09c.16-.24.14-.56-.05-.78-.03-.03-.06-.07-.09-.1-.15-.16-.3-.32-.45-.47-1.9-1.85-4.33-2.86-6.92-2.86-1.76,0-3.46.47-4.96,1.35-.7.42-1.36.92-1.96,1.51-.15.15-.31.31-.45.47-.03.03-.06.07-.09.1-.2.23-.22.56-.04.8"/>
        <path class="cls-6" d="m290.45,106.71c-1.18-2.12-4.29-3.65-7.94-3.65-3.86,0-7.11,1.7-8.11,4.02-1-2.32-4.25-4.02-8.11-4.02s-7.11,1.7-8.11,4.02c-1-2.32-4.25-4.02-8.11-4.02-4.66,0-8.44,2.48-8.44,5.53h0s-.13,0-.13,0c-5.56-27.27-5.56-55.38,0-82.65h49.32c-5.43,26.64-5.56,54.09-.37,80.77Z"/>
        <path class="cls-17" d="m247.53,25.94c-5.22,25.59-5.54,51.94-.96,77.62-2.92.86-4.94,2.8-4.94,5.03h0s-.13,0-.13,0c-5.56-27.27-5.56-55.38,0-82.65h6.03Z"/>
        <path class="cls-13" d="m258.18,107.72c-.3,0-.56-.21-.63-.51-5.37-25.59-5.52-53.98-.42-79.94.07-.35.4-.57.75-.5.35.07.57.4.5.75-5.07,25.8-4.92,54,.42,79.43.07.35-.15.69-.49.76-.04,0-.09.01-.13.01Z"/>
        <path class="cls-13" d="m274.4,107.72c-.29,0-.56-.2-.62-.5-5.62-24.87-5.72-53.55-.26-80.76.07-.35.4-.57.75-.5.35.07.57.41.5.75-5.42,27.03-5.33,55.52.25,80.22.08.34-.14.69-.48.77-.05.01-.09.02-.14.02Z"/>
        <path class="cls-9" d="m241.64,109.24h-.13c-.3,0-.57-.21-.63-.51-5.61-27.51-5.61-55.4,0-82.91.06-.3.32-.51.63-.51h49.32c.19,0,.37.09.5.24.12.15.17.34.13.53-5.44,26.7-5.57,53.79-.37,80.52.06.31-.11.62-.41.72-.3.11-.63-.02-.78-.29-1.1-1.98-4.07-3.32-7.38-3.32-3.51,0-6.6,1.49-7.52,3.63-.1.23-.33.39-.59.39h0c-.26,0-.49-.15-.59-.39-.92-2.14-4.02-3.63-7.52-3.63s-6.6,1.49-7.52,3.63c-.1.23-.33.39-.59.39h0c-.26,0-.49-.15-.59-.39-.92-2.14-4.02-3.63-7.52-3.63-4.28,0-7.76,2.17-7.8,4.84,0,.1,0,.2-.05.29-.1.24-.33.4-.59.4Zm.39-82.65c-5.32,26.42-5.43,53.2-.34,79.64,1.37-2.23,4.61-3.8,8.38-3.8,3.51,0,6.6,1.32,8.11,3.38,1.51-2.06,4.6-3.38,8.11-3.38s6.6,1.32,8.11,3.38c1.51-2.06,4.6-3.38,8.11-3.38,2.68,0,5.19.81,6.88,2.14-4.74-25.9-4.53-52.12.65-77.98h-48.01Z"/>
        <g>
          <g>
            <circle class="cls-2" cx="243.63" cy="50.77" r="11.98"/>
            <path class="cls-18" d="m243.63,63.39c-6.96,0-12.62-5.66-12.62-12.62s5.66-12.62,12.62-12.62,12.62,5.66,12.62,12.62-5.66,12.62-12.62,12.62Zm0-23.95c-6.25,0-11.34,5.09-11.34,11.34s5.09,11.34,11.34,11.34,11.34-5.09,11.34-11.34-5.09-11.34-11.34-11.34Z"/>
          </g>
          <path class="cls-18" d="m253.42,50.77c0,3.85-3.12,6.97-6.97,6.97s-6.97-3.12-6.97-6.97,3.12-6.97,6.97-6.97c1.54,0,2.95.49,4.1,1.34-1.98,1.84-3,3.72-2.36,4.63.63.89,2.69.58,5.03-.63.13.52.19,1.07.19,1.63Z"/>
        </g>
        <g>
          <g>
            <circle class="cls-2" cx="279.84" cy="50.77" r="11.98"/>
            <path class="cls-18" d="m279.84,63.39c-6.96,0-12.62-5.66-12.62-12.62s5.66-12.62,12.62-12.62,12.62,5.66,12.62,12.62c0,6.96-5.66,12.62-12.62,12.62Zm0-23.95c-6.25,0-11.34,5.09-11.34,11.34s5.09,11.34,11.34,11.34,11.34-5.09,11.34-11.34c0-6.25-5.09-11.34-11.34-11.34Z"/>
          </g>
          <path class="cls-18" d="m284.41,50.77c0,3.85-3.12,6.97-6.97,6.97s-6.97-3.12-6.97-6.97,3.12-6.97,6.97-6.97c1.54,0,2.95.49,4.1,1.34-1.98,1.84-3,3.72-2.36,4.63.63.89,2.69.58,5.03-.63.13.52.19,1.07.19,1.63Z"/>
        </g>
        <path class="cls-18" d="m252.81,32.2c2.6-1.02,5.08-.92,5.53.23.45,1.15-1.3,2.9-3.9,3.92-2.6,1.02-5.08.92-5.53-.23-.45-1.15,1.3-2.9,3.9-3.92Z"/>
        <path class="cls-18" d="m276.16,36c-.31,1.19-2.76,1.58-5.46.88s-4.64-2.25-4.33-3.44c.31-1.19,2.76-1.58,5.46-.88,2.71.71,4.64,2.25,4.33,3.44Z"/>
        <path class="cls-1" d="m273.24,132.6s0,.02-.02.03l-6.98,9.53s-.07.08-.1.11c-.11.1-.26.15-.41.15s-.3-.06-.42-.15c-.02-.02-.04-.03-.05-.05-.01-.01-.03-.03-.03-.04,0,0,0,0-.01-.02l-6.98-9.53c-.18-.24-.16-.58.04-.8.03-.03.06-.07.09-.1.15-.16.3-.32.45-.47.6-.59,1.26-1.09,1.96-1.51,1.5-.88,3.2-1.35,4.96-1.35,2.59,0,5.02,1.01,6.92,2.86.15.15.31.31.45.47.03.03.06.07.09.1.2.22.22.54.05.78Z"/>
        <g>
          <path class="cls-4" d="m293.49,21.4c-.63-.72-1.5-1.15-2.46-1.21l-49.88-3.16c-.96-.06-1.87.26-2.59.89-.72.63-1.14,1.5-1.2,2.46l-.28,4.4c-.06.96.26,1.88.89,2.59.63.72,1.5,1.15,2.46,1.21l49.88,3.16c.08,0,.15,0,.23,0,.87,0,1.7-.31,2.36-.89.72-.63,1.15-1.51,1.21-2.46l.28-4.4c.06-.96-.26-1.88-.89-2.59Zm-55.75,3l.25-3.99s0-.1.01-.15l-.26,4.14Z"/>
          <path class="cls-4" d="m238,20.26l-.26,4.14.25-3.99s0-.1.01-.15Z"/>
          <path class="cls-4" d="m237.99,20.41l-.25,3.99.26-4.14s0,.1-.01.15Z"/>
        </g>
        <g>
          <path class="cls-16" d="m272.94,63.98c0,1.07-.13,2.19-.39,3.29-.67,2.96-2.22,5.79-4.67,7.29-2.32,1.43-5.16,1.96-7.86,1.56-1.21-.17-2.39-.53-3.47-1.07-3.52-1.77-5.5-5.44-5.85-9.37.66.22,1.32.42,2,.58,5.85,1.48,12.17,1.07,17.78-1.16.84-.33,1.66-.7,2.47-1.12Z"/>
          <path class="cls-18" d="m261.75,76.9c-.61,0-1.22-.04-1.82-.13-1.3-.19-2.53-.57-3.67-1.14-3.49-1.75-5.81-5.45-6.2-9.89-.02-.21.07-.42.24-.56.17-.13.39-.17.6-.11.7.23,1.34.42,1.95.57,5.72,1.45,11.89,1.05,17.39-1.14.84-.33,1.65-.7,2.41-1.09.2-.1.44-.09.63.02.19.12.31.33.31.55,0,1.15-.14,2.3-.41,3.44-.77,3.43-2.58,6.23-4.96,7.69-1.89,1.16-4.17,1.78-6.46,1.78Zm-10.29-10.3c.58,3.56,2.55,6.47,5.38,7.89,1.01.51,2.11.85,3.28,1.01,2.58.38,5.29-.16,7.43-1.47,2.09-1.28,3.68-3.79,4.38-6.89.16-.7.27-1.4.33-2.11-.5.23-1.02.46-1.55.67-5.74,2.28-12.19,2.71-18.17,1.19-.35-.09-.71-.18-1.08-.29Z"/>
        </g>
        <g>
          <path class="cls-3" d="m272.55,67.28c-.67,2.96-2.22,5.79-4.67,7.29-2.32,1.43-5.16,1.96-7.86,1.56.82-1.94,2.06-3.72,3.62-5.14.28-.27.58-.51.88-.75,1.38-1.06,2.95-1.86,4.61-2.35,1.11-.34,2.25-.55,3.41-.61Z"/>
          <path class="cls-18" d="m261.75,76.9c-.61,0-1.22-.04-1.82-.13-.2-.03-.37-.15-.46-.32-.1-.17-.11-.38-.03-.56.86-2.04,2.17-3.89,3.78-5.36.26-.25.56-.5.92-.78,1.44-1.11,3.06-1.93,4.82-2.46,1.17-.36,2.37-.57,3.56-.64.2-.01.39.07.52.23.13.15.18.36.14.55-.77,3.43-2.58,6.24-4.96,7.7-1.89,1.16-4.17,1.78-6.46,1.78Zm-.78-1.31c2.31.16,4.66-.4,6.57-1.57,1.89-1.16,3.38-3.33,4.16-6.03-.8.1-1.59.27-2.38.51-1.61.48-3.09,1.24-4.41,2.25-.33.25-.59.48-.83.7-1.28,1.16-2.34,2.58-3.11,4.13Z"/>
        </g>
        <g>
          <path class="cls-2" d="m270.47,65.1c-.22,1-.68,1.96-1.33,2.79-.44.57-.97,1.08-1.55,1.5-1.16.84-2.53,1.35-3.95,1.61-.99.18-2,.23-2.99.18-2.01-.1-4.06-.61-5.67-1.82-1.04-.77-1.87-1.87-2.29-3.09,5.85,1.48,12.17,1.07,17.78-1.16Z"/>
          <path class="cls-18" d="m261.38,71.83c-.25,0-.51,0-.76-.02-2.38-.11-4.47-.79-6.02-1.94-1.17-.87-2.06-2.07-2.51-3.4-.08-.22-.02-.47.14-.64.16-.17.4-.24.63-.19,5.72,1.45,11.89,1.05,17.38-1.14.22-.09.47-.05.65.11.18.15.26.39.21.62-.23,1.08-.74,2.13-1.45,3.05-.49.63-1.05,1.18-1.68,1.62-1.18.85-2.59,1.42-4.2,1.71-.76.14-1.56.21-2.38.21Zm-7.54-4.65c.39.63.91,1.2,1.53,1.66,1.35,1,3.19,1.59,5.32,1.69.99.05,1.95,0,2.85-.17,1.42-.26,2.67-.76,3.69-1.5.53-.38,1-.84,1.42-1.37.33-.42.6-.87.81-1.33-4.99,1.72-10.45,2.08-15.61,1.02Z"/>
        </g>
        <path class="cls-11" d="m302.57,75.78c-.08-.22-.16-.43-.24-.64-.09-.22-.17-.44-.24-.64-.09-.22-.17-.44-.24-.63-.09-.23-.17-.44-.25-.63-.05-.12-.09-.23-.13-.34-.04-.1-.08-.2-.12-.3-1.67-4.09-4.61-8.54-12.29-7.73-.45.04-.91.11-1.42.2,0,0-.11.02-.11.02-.08.01-.16.03-.25.04-.1.02-.21.04-.32.07-.1.02-.2.04-.3.06-.08.02-.15.03-.23.05-.06.02-.11.03-.16.04l-.18.04h-.05s-.03.02-.05.02c-.03,0-.06.02-.08.03-.03.01-.05.03-.08.04l-1.81,1.24c-.18.12-.29.33-.28.55l.16,3.88c-3.55,1.47-6.54,4.09-8.22,7.33-2.44,4.7-2.02,10.53,1.04,14.5,2.02,2.63,5.09,4.24,8.25,4.57l.21,5.14h0s.03.66.03.66l.03.67.32,7.85c.01.32.27.59.59.61,0,0,.02,0,.06,0,.02,0,.04,0,.07,0,.08,0,.19.01.33.02.06,0,.12,0,.18,0,0,0,.02,0,.03,0,.06,0,.13,0,.2,0,.08,0,.16,0,.25.01.02,0,.04,0,.06,0,.05,0,.1,0,.15,0,.05,0,.1,0,.16,0,.11,0,.22,0,.34.01.02,0,.04,0,.06,0,.1,0,.2,0,.3,0,.09,0,.18,0,.27,0,.07,0,.14,0,.21,0,.59.01,1.26.02,1.98.02,2.51,0,5.7-.11,8.69-.56,4.85-.71,7.97-2.09,9.28-4.11,3.33-5.14-3.16-24.07-6.19-32.16Zm-17.22,15.16c-.22-.12-.44-.24-.66-.37-.95-.59-1.79-1.35-2.44-2.24-1.83-2.51-2.2-6.09-.91-8.92.59-1.3,1.56-2.4,2.77-3.23.2-.14.41-.27.62-.39.2-.11.41-.22.63-.32l.21,5.1.03.65.03.64.03.65.03.65.03.65.3,7.44c-.22-.09-.44-.2-.65-.31Z"/>
        <path class="cls-1" d="m320.49,49.36c-.97,4.04-3.43,6.93-5.98,7.21-1.57,6.29-4.83,12.17-9.36,16.81-.82.84-1.68,1.64-2.58,2.39-.18.15-.35.29-.53.44-.17.14-.35.28-.52.42-2.98,2.32-6.32,4.19-9.86,5.51-.21.08-.42.15-.62.23-.2.07-.4.14-.61.21-.83.28-1.67.53-2.52.74-.2.05-.41.1-.62.15-.21.05-.43.1-.65.15-.31.07-.63.14-.94.19-.09.02-.19.04-.28.05-.1.02-.19.03-.29.03-.02,0-.05,0-.07,0-.23,0-.45-.07-.65-.17-.44-.22-.77-.63-.86-1.14-.12-.67.2-1.32.74-1.65.16-.1.35-.17.55-.21.03,0,.06,0,.09-.02.21-.04.42-.08.63-.13.28-.05.56-.12.85-.18.22-.05.44-.1.65-.16.2-.05.41-.1.61-.16.79-.22,1.58-.46,2.36-.74.2-.07.41-.15.61-.22.21-.08.41-.15.62-.24,3.28-1.31,6.35-3.13,9.07-5.38.17-.15.35-.29.52-.44.17-.15.34-.3.51-.45.52-.46,1.02-.95,1.51-1.45,4.13-4.23,7.1-9.58,8.54-15.31-1.5-.77-2.88-2.04-3.79-3.58-1.62-2.73-1.8-5.41-.4-6.24.86-.52,2.07-.19,3.28.85.53-2.14,1.5-4.05,2.73-5.37,1.34-1.44,2.86-2.05,4.26-1.72,1.41.34,2.48,1.57,3.02,3.46.5,1.77.5,3.94-.03,6.12Z"/>
      </g>
      <g>
        <path class="cls-10" d="m37.94,46.81c-.04,1.13-.24,2.48-.58,4.04-.33,1.5-.76,3.17-1.29,4.96-.52,1.77-1.13,3.67-1.8,5.63l-3.97,11.68c-2.77,8.05-3.35,11.2-3.35,12.41v.14c.54-.03.98-.14,1.39-.36.95-.49,1.47-.67,1.94-.67,1.19,0,2.02.83,2.02,2.02,0,2.2-1.1,4.04-3.26,5.47-1.39.93-2.73,1.41-3.99,1.41-1.15,0-2.09-.14-2.85-.44-.79-.3-1.51-.79-2.13-1.43-.61-.64-1.1-1.44-1.46-2.39-.36-.94-.54-2.02-.54-3.21s.24-2.64.75-4.51c.48-1.74,1.09-3.75,1.82-5.97l2.42-7.17c3.39-9.84,5.37-17.52,5.89-22.83.26-2.36,1.63-3.7,3.77-3.7,1.19,0,2.21.31,3.03.91,1.88,1.43,2.23,2.97,2.19,4.01Z"/>
        <path class="cls-10" d="m54.52,51.44c0,1.12-.16,2.04-.5,2.83-.32.76-.76,1.43-1.29,2-.53.56-1.15,1.03-1.83,1.38-.68.36-1.42.58-2.19.67-.17.02-.35.03-.53.03-.66,0-1.31-.15-1.91-.43-.72-.34-1.34-.82-1.85-1.44-1.04-1.2-1.57-2.49-1.57-3.82s.23-2.24.7-2.97c.43-.65.97-1.2,1.62-1.62,1.15-.74,2.28-1.11,3.37-1.11.94,0,1.68.07,2.25.21.62.16,1.19.43,1.72.79,1.66,1.12,2.01,2.51,2.01,3.48Z"/>
        <path class="cls-10" d="m44.93,80.09c-1.38,3.18-1.73,4.79-1.77,5.59.72-.01,1-.13,1.08-.16.64-.33,1.12-.47,1.55-.47,1.08,0,2.17.74,2.17,2.39,0,1.21-.51,2.42-1.52,3.6-1.43,1.67-3.35,2.51-5.71,2.51-3.52,0-5.13-1.92-5.87-3.53-.38-.79-.59-1.78-.59-2.89,0-1.03.18-2.17.53-3.4.33-1.14.74-2.35,1.22-3.6.48-1.23,1-2.5,1.57-3.77l1.51-3.6c1.41-3.42,1.56-4.5,1.56-4.8,0-.78-.08-1.01-.09-1.02-.06-.09-.15-.17-.19-.2l-.55-.39c-.33-.23-.89-.78-.89-1.86,0-.67.24-1.32.72-1.88.37-.44.85-.82,1.42-1.14,1.1-.56,2.33-.83,3.71-.83,4.91,0,5.64,2.28,5.64,3.63,0,1.9-.49,4.07-1.45,6.45-.91,2.23-1.69,4.06-2.33,5.43l-1.72,3.94Z"/>
        <path class="cls-10" d="m80.56,66.9c-1.29-4.1-4.08-6.26-8.06-6.26-2.23,0-4.4.77-6.47,2.29.47-1.35,1.02-2.95,1.66-4.84.48-1.48.92-2.92,1.3-4.29.38-1.36.7-2.64.94-3.82.26-1.22.4-2.35.44-3.35.04-1.39-.64-2.66-2.05-3.81-.8-.61-1.78-.92-2.9-.92-2.09,0-3.46,1.33-3.76,3.63-.64,4.39-2.24,10.61-4.75,18.47l-3.23,9.86c-.34,1.07-.64,2.14-.9,3.2-.27,1.07-.49,2.14-.66,3.19-.17,1.09-.26,2.24-.26,3.42,0,2.77.87,5.13,2.6,7.02,1.79,1.9,4.24,2.86,7.28,2.86s5.89-.98,8.92-2.93c1.4-.92,2.76-2.04,4.02-3.34,1.27-1.3,2.4-2.78,3.36-4.4.96-1.62,1.73-3.39,2.29-5.27.56-1.89.84-3.83.84-5.77s-.2-3.59-.61-4.94Zm-8,8.54c-.98,4.57-2.89,8.08-5.73,10.54-1.86,1.61-3.69,2.41-5.49,2.41-1.92,0-2.88-1.08-2.88-3.23s.77-4.79,2.33-7.88c.71-1.4,1.51-2.76,2.39-4.07s1.77-2.47,2.68-3.48c.9-1.01,1.76-1.82,2.59-2.43.82-.62,1.61-.93,2.37-.93s1.32.33,1.68.98c.37.66.55,1.79.55,3.41s-.16,3.18-.49,4.68Z"/>
        <path class="cls-10" d="m109.78,67.75c-.17.67-.44,1.31-.8,1.9-1.12,1.9-2.53,2.3-3.52,2.3-.57,0-1.12-.2-1.59-.57l-.66-.58c-.36-.31-.68-.49-.9-.49,0,0-.35.03-1.17.78-.77.71-1.58,1.64-2.43,2.77-2.94,3.9-5.38,8.31-7.24,13.14l-1.26,3.33c-.38.95-.71,1.63-1.03,2.08-.52.73-1.32,1.13-2.27,1.13-.65,0-1.31-.12-1.96-.36-.62-.23-1.17-.53-1.66-.9-.53-.39-.95-.84-1.27-1.33-.36-.56-.56-1.08-.6-1.58-.03-.46.05-.95.23-1.5.13-.4.31-.88.53-1.44,3.83-9.43,5.78-15.78,5.78-18.89-.03-.36-.14-.65-.33-.77l-.6-.43c-.41-.31-.85-.85-.87-1.82-.02-.67.21-1.33.67-1.9.37-.44.83-.83,1.38-1.14,1.06-.57,2.14-.85,3.25-.85s1.9.13,2.56.38c.66.26,1.23.62,1.71,1.07,1.01.96,1.54,2.04,1.55,3.2,0,.29,0,.59-.03.89,1.61-2.18,3.21-3.74,4.82-4.73.94-.54,2.02-.81,3.23-.81,1.38,0,2.56.52,3.42,1.51.81.92,1.24,1.98,1.28,3.14.04.97-.04,1.78-.22,2.47Z"/>
        <path class="cls-10" d="m133.66,65.57c-1.31-3.23-4.03-4.94-7.88-4.94-3.1,0-6.18,1.13-9.17,3.37-1.35,1.02-2.61,2.22-3.75,3.56-1.14,1.34-2.15,2.78-2.99,4.28-.85,1.51-1.54,3.09-2.05,4.71-.51,1.63-.81,3.36-.9,5.16-.13,3.7.93,6.69,3.13,8.89,1.98,1.95,4.6,2.94,7.79,2.94,5.15,0,9.11-1.36,11.8-4.04l.06-.06.06-.08c.76-.99,1.15-2.18,1.15-3.51,0-.79-.2-1.51-.6-2.15-.7-1.11-1.62-1.28-2.11-1.28-.74,0-1.47.37-2.22,1.12-.39.38-.9.77-1.57,1.16-1.88,1.16-3.81,1.75-5.76,1.75-.81,0-1.35-.31-1.8-1.07-.23-.37-.4-.8-.5-1.29-.1-.5-.15-.95-.15-1.35,2.8-.15,5.47-.66,7.96-1.54,1.41-.51,2.73-1.14,3.93-1.89,1.23-.75,2.31-1.62,3.2-2.58.93-.99,1.66-2.1,2.19-3.31.53-1.24.81-2.59.83-4.03.02-1.44-.2-2.73-.65-3.82Zm-9.78,9.11c-2.36,2.21-5.14,3.48-8.34,3.8.96-3.26,2.22-6.08,3.8-8.46,1.86-2.76,3.8-4.15,5.81-4.15,1.33,0,1.99.95,1.99,2.85s-1.09,3.89-3.26,5.96Z"/>
        <path class="cls-10" d="m161.62,67.75c-.17.67-.45,1.32-.8,1.91-1.12,1.89-2.53,2.29-3.52,2.29-.57,0-1.12-.2-1.59-.57l-.66-.57c-.36-.32-.68-.5-.9-.5,0,0-.35.03-1.17.78-.77.71-1.58,1.64-2.43,2.77-2.94,3.89-5.38,8.31-7.24,13.14l-1.26,3.33c-.38.95-.71,1.63-1.03,2.08-.51.73-1.32,1.13-2.27,1.13-.65,0-1.31-.12-1.96-.36-.62-.23-1.17-.53-1.67-.9-.51-.39-.94-.83-1.26-1.33-.36-.56-.56-1.07-.59-1.58-.04-.45.04-.95.22-1.51.13-.39.31-.87.53-1.43,3.84-9.44,5.78-15.79,5.78-18.89-.03-.36-.14-.65-.32-.77l-.61-.43c-.41-.32-.85-.85-.87-1.82-.02-.67.21-1.33.67-1.9.36-.44.83-.83,1.38-1.14,1.06-.57,2.14-.85,3.25-.85s1.9.13,2.56.38c.66.26,1.23.62,1.71,1.07,1.02.97,1.54,2.04,1.55,3.2,0,.3,0,.59-.03.89,1.61-2.18,3.21-3.74,4.82-4.73.94-.54,2.02-.81,3.23-.81,1.38,0,2.56.52,3.42,1.51.81.92,1.24,1.98,1.28,3.14.04.97-.03,1.78-.22,2.47Z"/>
        <path class="cls-10" d="m175.75,54.19c-2.13,2.23-4.48,3.86-7.05,4.89-.75.29-1.39.44-1.93.46-.53.02-.89-.08-1.06-.31-.4-.5-.39-.95.06-1.36l1.32-1.26c2.84-2.71,4.81-6.08,5.9-10.11.19-.76.91-1.08,2.16-.95,1.02.16,1.84.68,2.47,1.56,1.41,1.95.78,4.32-1.87,7.08Z"/>
        <path class="cls-10" d="m177.62,47.12c-.63-.88-1.45-1.4-2.47-1.56-1.25-.13-1.97.19-2.16.95-1.09,4.03-3.06,7.4-5.9,10.11l-1.32,1.26c-.45.41-.46.86-.06,1.36.17.23.53.33,1.06.31.54-.02,1.18-.17,1.93-.46,2.57-1.03,4.92-2.66,7.05-4.89,2.65-2.76,3.28-5.13,1.87-7.08Z"/>
        <path class="cls-10" d="m176.78,55.18c3.95-4.13,3.27-7.11,2-8.89-.87-1.2-2.01-1.92-3.48-2.14-.24-.02-.46-.03-.67-.03-2.26,0-2.86,1.43-3.01,2.02-1.02,3.76-2.87,6.94-5.51,9.45l-1.3,1.25c-1,.91-1.08,2.2-.23,3.25.36.48.9.77,1.6.85-.47.14-.92.31-1.35.53-.57.31-1.05.7-1.43,1.14-.47.56-.72,1.21-.72,1.88,0,1.08.56,1.63.89,1.87l.55.38s.13.11.2.2c0,.01.09.24.09,1.02,0,.3-.16,1.38-1.56,4.8l-1.52,3.6c-.56,1.26-1.08,2.52-1.56,3.77-.49,1.26-.9,2.47-1.22,3.6-.36,1.23-.53,2.37-.53,3.4,0,1.11.2,2.09.58,2.89.74,1.61,2.36,3.53,5.87,3.53,2.36,0,4.28-.84,5.71-2.51,1.01-1.18,1.52-2.39,1.52-3.6,0-1.65-1.09-2.39-2.16-2.39-.43,0-.91.14-1.56.47-.07.03-.36.15-1.08.16.04-.8.4-2.41,1.78-5.59l1.71-3.94c.64-1.37,1.43-3.2,2.33-5.43.97-2.37,1.46-4.54,1.46-6.45,0-1.35-.73-3.62-5.61-3.63.21-.07.43-.15.66-.23,2.75-1.11,5.29-2.87,7.55-5.23Zm-10.01,4.37c-.53.02-.89-.08-1.06-.31-.4-.5-.39-.95.06-1.36l1.32-1.26c2.84-2.71,4.81-6.08,5.9-10.11.19-.76.91-1.08,2.16-.95,1.02.16,1.84.68,2.47,1.56,1.41,1.95.78,4.32-1.87,7.08-2.13,2.23-4.48,3.86-7.05,4.89-.75.29-1.39.44-1.93.46Z"/>
        <path class="cls-10" d="m207.72,65.34c.39-.73.7-2.19-1.55-3.83-.81-.59-1.89-.87-3.3-.87-1.22,0-2.38.73-3.6,2.26-1.51-1.5-3.36-2.26-5.53-2.26-2.62,0-5.42,1.09-8.31,3.23-2.82,2.06-5.18,4.73-7.02,7.95-2.01,3.47-3.09,7.08-3.21,10.7-.13,3.03.53,5.6,1.96,7.67.73,1.04,1.64,1.86,2.69,2.45,1.09.61,2.36.91,3.79.91s2.76-.32,4.02-.96c1.68-.88,3.21-2.17,4.56-3.85.08.26.17.52.27.79.75,1.85,1.96,3.07,3.63,3.66.78.26,1.57.4,2.35.4,1.53,0,3.04-.51,4.48-1.5,2.13-1.46,3.21-3.29,3.21-5.42,0-1.21-.83-2.05-2.03-2.05-.43,0-.92.15-1.74.54-.37.17-.89.26-1.54.26-.15,0-.45,0-.45-1.23,0-.33.02-.64.06-1.01.08-1.53,1.41-5.87,7.26-17.84Zm-22.5,22.42c-1.47,0-2.21-1.15-2.21-3.45,0-2.92.58-5.86,1.75-8.81.56-1.38,1.21-2.66,1.95-3.84.73-1.18,1.53-2.21,2.39-3.07.85-.86,1.73-1.54,2.64-2.04.91-.5,1.71-.75,2.39-.75s1.2.1,1.54.32c1.02.61,1.57,1.57,1.64,2.87-.4,1.5-.9,3-1.49,4.49-1.86,4.78-4,8.58-6.42,11.4-1.65,1.92-3.04,2.88-4.18,2.88Z"/>
      </g>
      <g>
        <path class="cls-15" d="m62.07,170.14c-1.83,1.28-3.59,2.55-5.25,3.81,2.53,2.58,5.29,6.04,8.32,10.49l4.86,7.25c4.09,6.25,6.44,8.72,7.71,9.7,2.25,1.75,3.21,1.8,3.31,1.8,1.16,0,1.73-.2,1.96-.32,1.38-.68,2.5-1.01,3.54-1.01,2.59,0,4.41,1.92,4.41,4.66,0,1.57-.49,3.11-1.45,4.56-.83,1.25-2.01,2.43-3.5,3.5-3.48,2.42-7.2,3.63-11.12,3.63s-6.82-.58-9.3-1.77c-2.31-1.1-4.47-2.59-6.42-4.43-1.88-1.77-3.63-3.82-5.19-6.11-1.47-2.17-2.88-4.45-4.18-6.79l-3.72-6.81c-2.88-5.48-5.08-8.67-6.66-10.53-8.52,21.4-17.68,33.12-27.94,35.77-.88.23-1.87.35-2.92.35-1.18,0-2.29-.2-3.32-.6-.99-.38-1.88-.92-2.62-1.58-2.13-1.78-2.58-3.72-2.58-5.02,0-1.92.82-3.6,2.32-4.72,6.69-4.91,13.68-18.2,20.8-39.54,4.2-12.63,7.16-24.18,8.8-34.32.1-.61.18-1.18.26-1.72-1.22.66-2.3,1.29-3.19,1.86-1.6,1.02-3.02,1.52-4.34,1.52-1.22,0-2.47-.34-3.72-1.02-1.05-.56-2.01-1.28-2.87-2.14-2.12-2.12-3.15-4.16-3.15-6.21s.65-3.69,1.9-5.05c.95-1.03,2.12-1.92,3.51-2.64,1.22-.63,2.57-1.18,4.02-1.63,1.38-.43,2.77-.77,4.12-1.01,2.48-.49,4.7-.75,6.58-.75,1.97,0,4.05.31,6.17.91,2.23.64,4.2,1.58,5.85,2.82,3.72,2.72,5.71,6.37,5.71,10.54,0,7.03-2.01,17.69-6.15,32.57-.38,1.37-.78,2.75-1.18,4.14,5.19-4.04,8.55-6.69,10.01-7.89,2.08-1.72,4.42-3.84,6.94-6.28,2.45-2.37,4.64-4.85,6.49-7.38,3.83-5.26,5.78-10.56,5.78-15.73,0-1.52-.36-2.78-1.12-3.86l-.05-.07-.05-.08c-.65-1.06-.99-2.17-.99-3.29,0-1.35.52-2.61,1.5-3.64.66-.7,1.47-1.28,2.38-1.74l.18-.09c1.52-.64,3.3-.95,5.46-.95s4.29.5,6.14,1.48c1.73.94,3.22,2.15,4.41,3.62,2.3,2.94,3.44,6.39,3.44,10.34,0,3.64-.75,7.21-2.22,10.6-1.42,3.26-3.32,6.37-5.65,9.23-2.27,2.78-4.92,5.45-7.86,7.96-2.88,2.45-5.89,4.81-8.95,7.02l-9.2,6.55Z"/>
        <g>
          <path class="cls-15" d="m120.34,189.8c-2.06,4.74-2.95,7.65-3.32,9.4.04-.01.06-.02.06-.02,1.51-.75,2.68-1.09,3.78-1.09,2.79,0,5.79,1.96,5.79,6.26,0,2.8-1.16,5.58-3.44,8.25-3.15,3.68-7.56,5.62-12.74,5.62-7.92,0-11.58-4.37-13.25-8.03-.87-1.79-1.33-4-1.33-6.49,0-2.24.38-4.71,1.14-7.35.68-2.37,1.53-4.89,2.54-7.5.98-2.54,2.07-5.16,3.24-7.79l3.09-7.35c3-7.28,3.09-9.15,3.1-9.34,0-.74-.04-1.19-.08-1.44l-1.06-.74c-.9-.63-2.41-2.1-2.41-4.93,0-1.7.63-3.33,1.8-4.73.88-1.03,1.99-1.92,3.31-2.64l.1-.05c2.37-1.21,5.11-1.83,8.14-1.83,11.25,0,12.93,5.52,12.93,8.8,0,4.08-1.04,8.7-3.09,13.74-1.85,4.55-3.46,8.3-4.78,11.15l-3.52,8.1Z"/>
          <path class="cls-15" d="m185.63,195.71v-.11c.14-2.46,2.24-10.42,14.79-36.12.81-1.57,1.93-5.46-3.6-9.49-1.91-1.38-4.39-2.05-7.58-2.05-3,0-5.51,1.82-7.52,4.06-3.16-2.67-6.95-4.06-11.2-4.06-5.66,0-11.68,2.33-17.85,6.9-5.94,4.31-10.91,9.95-14.76,16.72-4.23,7.31-6.51,14.92-6.77,22.56-.27,6.51,1.15,12.07,4.27,16.58,1.62,2.28,3.63,4.1,5.96,5.4,2.43,1.36,5.26,2.05,8.43,2.05s6.08-.71,8.87-2.13c2.99-1.56,5.74-3.72,8.25-6.45,1.69,3.82,4.44,6.5,8.05,7.77,1.74.58,3.51.88,5.25.88,3.41,0,6.76-1.11,9.96-3.3,5.91-4.07,7.15-8.9,7.15-12.24s-2.31-5.55-5.49-5.55c-1.11,0-2.28.35-4.16,1.24-.34.16-.96.35-2.08.4-.04-.26-.08-.64-.08-1.17,0-.63.03-1.22.09-1.77l.02-.12Zm-10.85-20.07c-3.82,9.8-8.21,17.59-13.17,23.38-3.39,3.94-6.24,5.91-8.56,5.91-3.04,0-4.55-2.37-4.55-7.09,0-5.98,1.2-12.01,3.6-18.07,1.14-2.83,2.47-5.46,3.99-7.88,1.51-2.42,3.15-4.52,4.9-6.29,1.75-1.77,3.56-3.17,5.43-4.19,1.87-1.03,3.5-1.54,4.9-1.54s2.45.22,3.16.65c2.09,1.26,3.21,3.23,3.37,5.91-.83,3.07-1.85,6.14-3.07,9.21Z"/>
          <path class="cls-15" d="m260.33,164.3c-.4,1.51-1.01,2.95-1.8,4.27-2.61,4.43-5.99,5.37-8.37,5.37-1.5,0-2.92-.52-4.11-1.5l-1.38-1.19c-.44-.38-.73-.55-.89-.63-.25.13-.77.45-1.58,1.19-1.51,1.39-3.13,3.24-4.81,5.49-5.97,7.9-10.9,16.85-14.68,26.63l-2.59,6.83c-.83,2.1-1.54,3.54-2.27,4.56-1.31,1.87-3.35,2.9-5.75,2.9-1.5,0-3.02-.28-4.49-.83-1.38-.51-2.65-1.19-3.76-2.03-1.18-.88-2.16-1.92-2.9-3.07-.88-1.34-1.35-2.61-1.44-3.88-.08-1.1.09-2.29.53-3.61.28-.84.64-1.82,1.11-3.01,9.61-23.64,11.7-33.76,11.75-38.1-.03-.39-.1-.6-.14-.68l-1.26-.88-.08-.07c-.79-.61-2.13-2.03-2.21-4.68-.05-1.71.54-3.36,1.69-4.78.85-1.04,1.92-1.94,3.2-2.67l.1-.05c2.31-1.24,4.74-1.87,7.23-1.87,2.35,0,4.23.29,5.75.89,1.51.59,2.83,1.42,3.93,2.46,2.1,1.99,3.03,4.01,3.4,5.69,2.65-3.15,5.3-5.52,8-7.17,2.14-1.25,4.59-1.87,7.33-1.87,3.21,0,5.98,1.23,8.01,3.55,1.87,2.15,2.87,4.6,2.97,7.29.07,2.13-.09,3.91-.49,5.45Z"/>
          <path class="cls-15" d="m305.43,195.71v-.11c.14-2.46,2.24-10.42,14.79-36.12.81-1.57,1.93-5.46-3.61-9.49-1.9-1.38-4.38-2.05-7.57-2.05-3,0-5.51,1.82-7.53,4.06-3.15-2.67-6.94-4.06-11.19-4.06-5.67,0-11.68,2.33-17.85,6.9-5.94,4.31-10.91,9.95-14.76,16.72-4.23,7.31-6.51,14.91-6.77,22.56-.27,6.51,1.15,12.07,4.27,16.58,1.62,2.28,3.63,4.1,5.96,5.4,2.43,1.36,5.26,2.05,8.43,2.05s6.08-.71,8.87-2.13c2.99-1.56,5.74-3.72,8.25-6.45,1.69,3.82,4.44,6.5,8.05,7.77,1.74.58,3.5.88,5.25.88,3.41,0,6.76-1.11,9.96-3.3,5.91-4.07,7.15-8.9,7.15-12.24s-2.31-5.55-5.49-5.55c-1.11,0-2.28.35-4.16,1.24-.34.16-.96.35-2.08.4-.04-.26-.08-.64-.08-1.17,0-.63.03-1.22.09-1.77l.02-.12Zm-10.86-20.07c-3.81,9.8-8.2,17.59-13.16,23.38-3.39,3.94-6.24,5.91-8.56,5.91-3.04,0-4.55-2.37-4.55-7.09,0-5.98,1.2-12.01,3.6-18.07,1.14-2.83,2.47-5.46,3.99-7.88,1.51-2.42,3.15-4.52,4.9-6.29,1.75-1.77,3.56-3.17,5.43-4.19,1.87-1.03,3.5-1.54,4.9-1.54s2.45.22,3.16.65c2.09,1.26,3.21,3.23,3.37,5.91-.83,3.07-1.85,6.14-3.08,9.21Z"/>
        </g>
      </g>
    </g>
  </g>
</svg>